#!OML:ASF F:\VICON\USERDATA\INSTALL\rory3\rory3.ASF
:FULLY-SPECIFIED
:DEGREES
62
root 0.6680467215620931 17.699486690585275 19.85072499475965 -1.0508355686872632 -1.7342949231204496 -7.4879750703441115
lfemur -19.286653691049885 -3.8266988380687934 -11.150805735880006
ltibia 19.697750369152004
lfoot -6.976857498976855 1.158481479943215
ltoes -9.131660974480026
rfemur 10.267212596111738 5.578631046716378 35.091903754477464
rtibia 28.42102337809152
rfoot -12.195863353164874 -6.231478228141791
rtoes -9.410869397816278
lowerback 10.359935718118864 1.8990025268205466 5.537613626951565
upperback -0.7620089792298155 3.2169625444648986 1.961080677790985
thorax -6.347288975357612 1.3985322534648466 -2.0222157241363323
lowerneck -16.21120906939171 -3.8328307945928395 -1.918009864598233
upperneck 21.261512433511577 -5.405478573005374 2.361895781463976
head 9.51817204218953 -2.407613673544782 0.274694025915759
lclavicle 2.9971032120579853e-16 5.574546250229112e-17
lhumerus -36.27573616842668 10.63922996408267 79.42340706541053
lradius 20.243949740761355
lwrist 2.504880977346046
lhand -29.355828798423627 18.956522621998445
lfingers 7.125020000000001
lthumb -2.7495465758116913 48.854727559523994
rclavicle 2.9256768838580956e-16 5.165533231896165e-17
rhumerus -22.228905589416584 -13.574055566007129 -80.31697470437123
rradius 34.37163975831116
rwrist -0.49282662263900034
rhand -19.52574788965544 24.058989149400432
rfingers 7.125020000000001
rthumb 6.882819075868708 -5.548879601141126
63
root 0.7546533642762637 17.752149040727566 20.67997984984798 -1.5863109639631157 -2.2543652617395766 -6.2895837106028765
lfemur -19.577460390585895 -3.538691805104337 -13.084721265587646
ltibia 22.89852482099427
lfoot -6.482446552844753 -0.38735110010580787
ltoes -9.529901764113976
rfemur 10.338689680732374 5.239071929633078 33.07366495248751
rtibia 33.853831853247755
rfoot -7.945100870473463 -4.554005051006962
rtoes -7.80026612946619
lowerback 9.92195661226209 2.1334146840147374 4.582918420528123
upperback -0.6625323896486837 3.37762116578421 1.609374965680626
thorax -5.983269444324194 1.4806366033045983 -1.959758305685593
lowerneck -16.056802644085117 -3.8841354313503182 -1.8562008961780465
upperneck 21.321688472651925 -5.544493010622531 2.460792684289383
head 9.526136493609892 -2.459196749517365 0.2815887021751599
lclavicle 3.007013817116991e-16 5.645686753166067e-17
lhumerus -36.70477341427117 11.185204056750456 78.97332486224232
lradius 20.13622116815209
lwrist 0.6947132416545356
lhand -28.69738765842161 19.29362105884238
lfingers 7.125020000000001
lthumb -2.067319032886422 49.427395679142556
rclavicle 2.9519673508332347e-16 5.344656436618733e-17
rhumerus -23.20615600825774 -14.625523937484662 -80.1532594378163
rradius 34.16369453519329
rwrist -0.1066737851210906
rhand -19.00512269154798 24.014323940746376
rfingers 7.125020000000001
rthumb 7.361643885513378 -5.631503107553636
64
root 0.8399571661820241 17.82292006527119 21.720984210091576 -2.1118546130053013 -1.681320692393423 -4.256249608511789
lfemur -18.491952036945833 -4.0612042281216 -15.965307888361568
ltibia 24.756314618693544
lfoot -6.046315196996965 -2.010583795825288
ltoes -7.263515107438191
rfemur 8.215153190842075 3.7150514395095446 29.885518517361028
rtibia 42.04635265831191
rfoot -1.1537084330890863 -3.2136810986895625
rtoes -3.4581531457661
lowerback 9.639061515964737 2.0985207927813736 2.6827424098760897
upperback -0.7111597340877016 3.2111204963018407 1.0419805321664923
thorax -5.995882924482666 1.450899251548377 -1.3978373686627592
lowerneck -16.016706034831127 -3.8387348886064983 -1.8005397737536555
upperneck 21.54527167146335 -5.522376777701834 2.405731623932849
head 9.60069177450189 -2.4622930442809476 0.26288839448346946
lclavicle 3.004981247527042e-16 5.631067449145979e-17
lhumerus -36.898683315954855 11.65112437330217 78.57182114903186
lradius 19.832096464903962
lwrist 0.9106268850922561
lhand -28.379328007789454 19.21488353277348
lfingers 7.125020000000001
lthumb -1.7825446288826565 49.26147133730411
rclavicle 2.948723614679712e-16 5.317622631679629e-17
rhumerus -24.335209616531415 -15.825573456562015 -79.8896067794717
rradius 33.48743531260444
rwrist 0.22480572527222087
rhand -18.87449275520625 23.889164994645153
rfingers 7.125020000000001
rthumb 7.426240760251685 -5.909978343485539
65
root 0.908633638132367 17.88551056624646 23.165033433928535 -2.9682543349605393 -1.7817560609720071 -4.318076554818573
lfemur -17.085309769838187 -3.065435346366352 -16.5764929025505
ltibia 27.70560142328891
lfoot -6.661941931255014 -3.178966691133999
ltoes -4.106378465226605
rfemur 4.904279866659438 2.3018158663677513 28.87121373627206
rtibia 50.93816775784612
rfoot 6.753184619627018 -3.3769785653238573
rtoes 6.3623744834313944
lowerback 10.06735575398833 2.04025701575493 3.0343752459482847
upperback -0.8660941945159228 3.0977416532614006 1.1418615626086779
thorax -6.332044972628283 1.3545506212677387 -1.5271466848803963
lowerneck -15.91604892185275 -3.8673360452184475 -1.8564271185648213
upperneck 21.728705567386374 -5.568542442097692 2.3704886038675124
head 9.631883656013178 -2.4894050961524603 0.26971694050065953
lclavicle 2.990409930772736e-16 5.526476677250433e-17
lhumerus -36.86344873167365 12.570602728976711 77.92197420555668
lradius 19.828249392369962
lwrist 2.5551425244781827
lhand -28.099035165702965 18.594176264214497
lfingers 7.125020000000001
lthumb -1.3695263909863118 48.67358135830205
rclavicle 2.9499066108680895e-16 5.329188298210321e-17
rhumerus -26.085758195932264 -17.147609001267696 -79.47387042976918
rradius 32.88205276954803
rwrist 0.8226647778713612
rhand -18.751422272433214 23.662589302941594
rfingers 7.125020000000001
rthumb 7.567163916409423 -6.0687833178576565
